<mxfile host="app.diagrams.net" modified="2021-02-23T02:34:42.703Z" agent="5.0 (Windows NT 10.0; Win64; x64) AppleWebKit/537.36 (KHTML, like Gecko) Chrome/88.0.4324.182 Safari/537.36" etag="eyoBYrYPq3MbHQfMG_wE" version="14.4.2" type="github">
  <diagram name="Page-1" id="e7e014a7-5840-1c2e-5031-d8a46d1fe8dd">
    <mxGraphModel dx="1298" dy="685" grid="1" gridSize="10" guides="1" tooltips="1" connect="1" arrows="1" fold="1" page="1" pageScale="1" pageWidth="1169" pageHeight="826" background="#ffffff" math="0" shadow="0">
      <root>
        <mxCell id="0" />
        <mxCell id="1" parent="0" />
        <mxCell id="w3tdlSialVUyiGjbRPjq-41" value="&lt;b&gt;PowerKey&lt;/b&gt;" style="shape=umlLifeline;participant=umlEntity;perimeter=lifelinePerimeter;whiteSpace=wrap;html=1;container=1;collapsible=0;recursiveResize=0;verticalAlign=top;spacingTop=36;outlineConnect=0;size=40;" parent="1" vertex="1">
          <mxGeometry x="170" y="110" width="40" height="610" as="geometry" />
        </mxCell>
        <mxCell id="-dAc66lvm-f3iasSjSUs-8" value="" style="html=1;points=[];perimeter=orthogonalPerimeter;fontSize=15;" vertex="1" parent="w3tdlSialVUyiGjbRPjq-41">
          <mxGeometry x="15" y="92" width="10" height="80" as="geometry" />
        </mxCell>
        <mxCell id="w3tdlSialVUyiGjbRPjq-49" value="" style="edgeStyle=orthogonalEdgeStyle;rounded=0;orthogonalLoop=1;jettySize=auto;html=1;fontSize=18;" parent="1" edge="1">
          <mxGeometry relative="1" as="geometry">
            <Array as="points">
              <mxPoint x="540.68" y="369.94" />
              <mxPoint x="540.68" y="369.94" />
            </Array>
            <mxPoint x="480.00352941176465" y="369.9988235294117" as="sourcePoint" />
            <mxPoint x="760.18" y="369.9988235294117" as="targetPoint" />
          </mxGeometry>
        </mxCell>
        <mxCell id="w3tdlSialVUyiGjbRPjq-50" value="onAuthenticated" style="edgeLabel;html=1;align=center;verticalAlign=middle;resizable=0;points=[];fontSize=18;" parent="w3tdlSialVUyiGjbRPjq-49" vertex="1" connectable="0">
          <mxGeometry x="0.2872" y="4" relative="1" as="geometry">
            <mxPoint x="-40.5" as="offset" />
          </mxGeometry>
        </mxCell>
        <mxCell id="w3tdlSialVUyiGjbRPjq-55" value="" style="edgeStyle=orthogonalEdgeStyle;rounded=0;orthogonalLoop=1;jettySize=auto;html=1;fontSize=18;" parent="1" edge="1">
          <mxGeometry relative="1" as="geometry">
            <Array as="points">
              <mxPoint x="615.6800000000001" y="479.94" />
              <mxPoint x="615.6800000000001" y="479.94" />
            </Array>
            <mxPoint x="475.00352941176465" y="479.9988235294117" as="sourcePoint" />
            <mxPoint x="945.1800000000001" y="479.9988235294117" as="targetPoint" />
          </mxGeometry>
        </mxCell>
        <mxCell id="w3tdlSialVUyiGjbRPjq-56" value="ResumeLauncher" style="edgeLabel;html=1;align=center;verticalAlign=middle;resizable=0;points=[];fontSize=18;" parent="w3tdlSialVUyiGjbRPjq-55" vertex="1" connectable="0">
          <mxGeometry x="0.4047" y="-2" relative="1" as="geometry">
            <mxPoint x="-65" y="8" as="offset" />
          </mxGeometry>
        </mxCell>
        <mxCell id="w3tdlSialVUyiGjbRPjq-43" value="&lt;font style=&quot;font-size: 15px&quot;&gt;&lt;b&gt;HAL&lt;/b&gt;&lt;/font&gt;" style="shape=umlLifeline;participant=umlEntity;perimeter=lifelinePerimeter;whiteSpace=wrap;html=1;container=1;collapsible=0;recursiveResize=0;verticalAlign=top;spacingTop=36;outlineConnect=0;" parent="1" vertex="1">
          <mxGeometry x="280" y="108" width="40" height="612" as="geometry" />
        </mxCell>
        <mxCell id="-dAc66lvm-f3iasSjSUs-15" value="" style="html=1;points=[];perimeter=orthogonalPerimeter;fontSize=15;" vertex="1" parent="w3tdlSialVUyiGjbRPjq-43">
          <mxGeometry x="15" y="164" width="10" height="80" as="geometry" />
        </mxCell>
        <mxCell id="w3tdlSialVUyiGjbRPjq-46" value="onAuthenticated" style="html=1;verticalAlign=bottom;endArrow=block;fontSize=18;" parent="1" edge="1">
          <mxGeometry x="0.0067" y="10" width="80" relative="1" as="geometry">
            <mxPoint x="307" y="350" as="sourcePoint" />
            <mxPoint x="476.5" y="350" as="targetPoint" />
            <Array as="points">
              <mxPoint x="357.5" y="350" />
            </Array>
            <mxPoint as="offset" />
          </mxGeometry>
        </mxCell>
        <mxCell id="w3tdlSialVUyiGjbRPjq-52" value="" style="edgeStyle=orthogonalEdgeStyle;rounded=0;orthogonalLoop=1;jettySize=auto;html=1;fontSize=18;" parent="1" edge="1">
          <mxGeometry relative="1" as="geometry">
            <Array as="points">
              <mxPoint x="600.6800000000001" y="449.94" />
              <mxPoint x="600.6800000000001" y="449.94" />
            </Array>
            <mxPoint x="760.1800000000001" y="449.9988235294117" as="sourcePoint" />
            <mxPoint x="490" y="450" as="targetPoint" />
          </mxGeometry>
        </mxCell>
        <mxCell id="w3tdlSialVUyiGjbRPjq-53" value="KeyguardGoingAway&lt;br&gt;" style="edgeLabel;html=1;align=center;verticalAlign=middle;resizable=0;points=[];fontSize=18;" parent="w3tdlSialVUyiGjbRPjq-52" vertex="1" connectable="0">
          <mxGeometry x="-0.2312" y="-1" relative="1" as="geometry">
            <mxPoint x="-24.17" y="-9.07" as="offset" />
          </mxGeometry>
        </mxCell>
        <mxCell id="w3tdlSialVUyiGjbRPjq-48" value="Framework" style="shape=umlLifeline;participant=umlEntity;perimeter=lifelinePerimeter;whiteSpace=wrap;html=1;container=1;collapsible=0;recursiveResize=0;verticalAlign=top;spacingTop=36;outlineConnect=0;fontSize=15;fontStyle=1" parent="1" vertex="1">
          <mxGeometry x="460" y="108" width="40" height="612" as="geometry" />
        </mxCell>
        <mxCell id="-dAc66lvm-f3iasSjSUs-31" value="" style="html=1;points=[];perimeter=orthogonalPerimeter;fontSize=15;" vertex="1" parent="w3tdlSialVUyiGjbRPjq-48">
          <mxGeometry x="15" y="242" width="10" height="20" as="geometry" />
        </mxCell>
        <mxCell id="-dAc66lvm-f3iasSjSUs-43" value="" style="html=1;points=[];perimeter=orthogonalPerimeter;fontSize=15;" vertex="1" parent="w3tdlSialVUyiGjbRPjq-48">
          <mxGeometry x="15" y="342" width="10" height="28" as="geometry" />
        </mxCell>
        <mxCell id="w3tdlSialVUyiGjbRPjq-54" value="SystemUI" style="shape=umlLifeline;participant=umlEntity;perimeter=lifelinePerimeter;whiteSpace=wrap;html=1;container=1;collapsible=0;recursiveResize=0;verticalAlign=top;spacingTop=36;outlineConnect=0;fontSize=15;fontStyle=1" parent="1" vertex="1">
          <mxGeometry x="740" y="118" width="40" height="600" as="geometry" />
        </mxCell>
        <mxCell id="-dAc66lvm-f3iasSjSUs-18" value="" style="html=1;points=[];perimeter=orthogonalPerimeter;fontSize=15;" vertex="1" parent="w3tdlSialVUyiGjbRPjq-54">
          <mxGeometry x="15" y="252" width="10" height="80" as="geometry" />
        </mxCell>
        <mxCell id="w3tdlSialVUyiGjbRPjq-58" value="DrawDone&lt;br&gt;" style="html=1;verticalAlign=bottom;endArrow=block;fontSize=18;" parent="1" target="w3tdlSialVUyiGjbRPjq-48" edge="1">
          <mxGeometry x="-0.0421" y="-10" width="80" relative="1" as="geometry">
            <mxPoint x="945.1800000000001" y="550" as="sourcePoint" />
            <mxPoint x="413.0000000000002" y="750.8999999999999" as="targetPoint" />
            <Array as="points">
              <mxPoint x="815.6800000000001" y="550" />
            </Array>
            <mxPoint as="offset" />
          </mxGeometry>
        </mxCell>
        <mxCell id="w3tdlSialVUyiGjbRPjq-71" value="Do WallPaper animation" style="text;strokeColor=none;fillColor=none;html=1;fontSize=15;fontStyle=0;verticalAlign=middle;align=center;" parent="1" vertex="1">
          <mxGeometry x="540" y="600" width="100" height="40" as="geometry" />
        </mxCell>
        <mxCell id="w3tdlSialVUyiGjbRPjq-81" value="&lt;span style=&quot;font-weight: normal&quot;&gt;T2:335ms&lt;/span&gt;" style="text;fillColor=none;html=1;fontSize=24;fontStyle=1;verticalAlign=middle;align=center;rounded=0;strokeColor=#000000;" parent="1" vertex="1">
          <mxGeometry x="810" y="400" width="110" height="40" as="geometry" />
        </mxCell>
        <mxCell id="w3tdlSialVUyiGjbRPjq-82" value="T4:117ms" style="text;fillColor=none;html=1;fontSize=24;fontStyle=0;verticalAlign=middle;align=center;strokeColor=#000000;" parent="1" vertex="1">
          <mxGeometry x="1000" y="520" width="110" height="40" as="geometry" />
        </mxCell>
        <mxCell id="w3tdlSialVUyiGjbRPjq-83" value="T5:347ms" style="text;fillColor=none;html=1;fontSize=24;fontStyle=0;verticalAlign=middle;align=center;strokeColor=#000000;" parent="1" vertex="1">
          <mxGeometry x="500" y="660" width="115" height="40" as="geometry" />
        </mxCell>
        <mxCell id="-dAc66lvm-f3iasSjSUs-4" value="User" style="shape=umlLifeline;participant=umlActor;perimeter=lifelinePerimeter;whiteSpace=wrap;html=1;container=1;collapsible=0;recursiveResize=0;verticalAlign=top;spacingTop=36;outlineConnect=0;horizontal=1;fontStyle=1;fontSize=15;" vertex="1" parent="1">
          <mxGeometry x="30" y="110" width="20" height="610" as="geometry" />
        </mxCell>
        <mxCell id="-dAc66lvm-f3iasSjSUs-9" value="Touch Power Key" style="html=1;verticalAlign=bottom;startArrow=oval;endArrow=block;startSize=8;fontSize=15;" edge="1" target="w3tdlSialVUyiGjbRPjq-41" parent="1" source="-dAc66lvm-f3iasSjSUs-4">
          <mxGeometry x="-0.0588" y="10" relative="1" as="geometry">
            <mxPoint x="110" y="250" as="sourcePoint" />
            <Array as="points">
              <mxPoint x="60" y="200" />
              <mxPoint x="110" y="200" />
            </Array>
            <mxPoint as="offset" />
          </mxGeometry>
        </mxCell>
        <mxCell id="-dAc66lvm-f3iasSjSUs-11" value="中断处理" style="html=1;verticalAlign=bottom;endArrow=block;fontSize=15;" edge="1" parent="1" target="w3tdlSialVUyiGjbRPjq-43">
          <mxGeometry width="80" relative="1" as="geometry">
            <mxPoint x="200" y="229.41" as="sourcePoint" />
            <mxPoint x="280" y="229.41" as="targetPoint" />
          </mxGeometry>
        </mxCell>
        <mxCell id="-dAc66lvm-f3iasSjSUs-14" value="获取指纹信息" style="html=1;verticalAlign=bottom;endArrow=block;fontSize=15;" edge="1" parent="1" target="w3tdlSialVUyiGjbRPjq-41">
          <mxGeometry width="80" relative="1" as="geometry">
            <mxPoint x="300" y="269.41" as="sourcePoint" />
            <mxPoint x="380" y="269.41" as="targetPoint" />
          </mxGeometry>
        </mxCell>
        <mxCell id="-dAc66lvm-f3iasSjSUs-17" value="用户指纹检查" style="edgeStyle=orthogonalEdgeStyle;html=1;align=left;spacingLeft=2;endArrow=block;rounded=0;entryX=1;entryY=0;fontSize=15;" edge="1" parent="1">
          <mxGeometry x="-0.6938" y="20" relative="1" as="geometry">
            <mxPoint x="310" y="300" as="sourcePoint" />
            <Array as="points">
              <mxPoint x="335" y="300" />
            </Array>
            <mxPoint x="315" y="320" as="targetPoint" />
            <mxPoint x="1" as="offset" />
          </mxGeometry>
        </mxCell>
        <mxCell id="-dAc66lvm-f3iasSjSUs-20" value="RefreshUI" style="edgeStyle=orthogonalEdgeStyle;html=1;align=left;spacingLeft=2;endArrow=block;rounded=0;entryX=1;entryY=0;fontSize=15;" edge="1" parent="1">
          <mxGeometry x="-0.2308" y="19" relative="1" as="geometry">
            <mxPoint x="770" y="397.97" as="sourcePoint" />
            <Array as="points">
              <mxPoint x="795" y="397.97" />
            </Array>
            <mxPoint x="775" y="417.97" as="targetPoint" />
            <mxPoint x="-14" y="-18" as="offset" />
          </mxGeometry>
        </mxCell>
        <mxCell id="-dAc66lvm-f3iasSjSUs-21" value="Launcher" style="shape=umlLifeline;participant=umlEntity;perimeter=lifelinePerimeter;whiteSpace=wrap;html=1;container=1;collapsible=0;recursiveResize=0;verticalAlign=top;spacingTop=36;outlineConnect=0;fontSize=15;fontStyle=1" vertex="1" parent="1">
          <mxGeometry x="930" y="118" width="40" height="600" as="geometry" />
        </mxCell>
        <mxCell id="-dAc66lvm-f3iasSjSUs-22" value="" style="html=1;points=[];perimeter=orthogonalPerimeter;fontSize=15;" vertex="1" parent="-dAc66lvm-f3iasSjSUs-21">
          <mxGeometry x="15" y="352" width="10" height="78" as="geometry" />
        </mxCell>
        <mxCell id="-dAc66lvm-f3iasSjSUs-23" value="ReLayout&amp;amp;Redraw" style="edgeStyle=orthogonalEdgeStyle;html=1;align=left;spacingLeft=2;endArrow=block;rounded=0;entryX=1;entryY=0;fontSize=15;" edge="1" parent="1">
          <mxGeometry x="-0.6938" y="20" relative="1" as="geometry">
            <mxPoint x="960" y="500" as="sourcePoint" />
            <Array as="points">
              <mxPoint x="985" y="500" />
            </Array>
            <mxPoint x="965" y="520" as="targetPoint" />
            <mxPoint x="1" as="offset" />
          </mxGeometry>
        </mxCell>
        <mxCell id="-dAc66lvm-f3iasSjSUs-27" value="&lt;b&gt;T1:8ms&lt;/b&gt;" style="text;html=1;fillColor=none;align=center;verticalAlign=middle;whiteSpace=wrap;rounded=0;fontSize=15;strokeColor=#000000;" vertex="1" parent="1">
          <mxGeometry x="495" y="330" width="60" height="20" as="geometry" />
        </mxCell>
        <mxCell id="-dAc66lvm-f3iasSjSUs-36" value="" style="edgeStyle=orthogonalEdgeStyle;html=1;align=left;spacingLeft=2;endArrow=block;rounded=0;fontSize=15;" edge="1" parent="1">
          <mxGeometry x="-0.2308" y="19" relative="1" as="geometry">
            <mxPoint x="480" y="590" as="sourcePoint" />
            <Array as="points">
              <mxPoint x="505" y="590" />
              <mxPoint x="505" y="650" />
            </Array>
            <mxPoint x="480" y="650" as="targetPoint" />
            <mxPoint x="-14" y="-18" as="offset" />
          </mxGeometry>
        </mxCell>
        <mxCell id="-dAc66lvm-f3iasSjSUs-38" style="edgeStyle=orthogonalEdgeStyle;rounded=0;orthogonalLoop=1;jettySize=auto;html=1;exitX=0.5;exitY=1;exitDx=0;exitDy=0;fontSize=15;" edge="1" parent="1">
          <mxGeometry relative="1" as="geometry">
            <mxPoint x="480" y="790" as="sourcePoint" />
            <mxPoint x="480" y="790" as="targetPoint" />
          </mxGeometry>
        </mxCell>
        <mxCell id="-dAc66lvm-f3iasSjSUs-41" value="Prepare Lauch&lt;br&gt;Laucher" style="edgeStyle=orthogonalEdgeStyle;html=1;align=left;spacingLeft=2;endArrow=block;rounded=0;fontSize=15;" edge="1" parent="1" target="w3tdlSialVUyiGjbRPjq-48">
          <mxGeometry x="-0.3711" y="-87" relative="1" as="geometry">
            <mxPoint x="470" y="460" as="sourcePoint" />
            <Array as="points">
              <mxPoint x="445" y="460" />
              <mxPoint x="445" y="480" />
            </Array>
            <mxPoint x="425" y="480" as="targetPoint" />
            <mxPoint x="2" y="-20" as="offset" />
          </mxGeometry>
        </mxCell>
        <mxCell id="-dAc66lvm-f3iasSjSUs-42" value="&lt;span style=&quot;font-weight: normal&quot;&gt;T3:16ms&lt;/span&gt;" style="text;fillColor=none;html=1;fontSize=24;fontStyle=1;verticalAlign=middle;align=center;rounded=0;strokeColor=#000000;" vertex="1" parent="1">
          <mxGeometry x="330" y="470" width="110" height="40" as="geometry" />
        </mxCell>
        <mxCell id="-dAc66lvm-f3iasSjSUs-44" value="" style="html=1;points=[];perimeter=orthogonalPerimeter;fontSize=15;" vertex="1" parent="1">
          <mxGeometry x="470" y="550" width="10" height="170" as="geometry" />
        </mxCell>
        <mxCell id="-dAc66lvm-f3iasSjSUs-45" style="edgeStyle=orthogonalEdgeStyle;rounded=0;orthogonalLoop=1;jettySize=auto;html=1;exitX=0.25;exitY=1;exitDx=0;exitDy=0;entryX=0;entryY=0.75;entryDx=0;entryDy=0;fontSize=15;" edge="1" parent="1" source="-dAc66lvm-f3iasSjSUs-27" target="-dAc66lvm-f3iasSjSUs-27">
          <mxGeometry relative="1" as="geometry" />
        </mxCell>
      </root>
    </mxGraphModel>
  </diagram>
</mxfile>
